<?xml version="1.0" encoding="UTF-8" standalone="no"?>
<!DOCTYPE svg PUBLIC "-//W3C//DTD SVG 20010904//EN" "http://www.w3.org/TR/2001/REC-SVG-20010904/DTD/svg10.dtd">
<svg version="1.0" xmlns="http://www.w3.org/2000/svg" width="512.000000pt" height="512.000000pt" viewBox="0 0 512.000000 512.000000" preserveAspectRatio="xMidYMid meet">

<g transform="translate(0.000000,512.000000) scale(0.100000,-0.100000)" fill="#000000" stroke="none">
<path d="M2220 4869 c-138 -15 -356 -56 -491 -93 -174 -48 -300 -96 -458 -174 -202 -99 -289 -189 -338 -347 -17 -56 -18 -107 -18 -704 l0 -644 1305 -377 1305 -376 3 -284 c3 -317 -2 -346 -61 -396 -17 -14 -228 -124 -469 -245 l-438 -219 -433 216 c-237 119 -447 227 -466 241 -63 48 -71 81 -71 325 0 198 -2 217 -17 222 -10 3 -155 46 -323 96 -168 50 -313 93 -324 96 -18 6 -18 -5 -13 -357 5 -406 11 -447 82 -596 63 -134 163 -255 280 -338 50 -36 1267 -675 1285 -675 12 0 1198 618 1251 652 176 113 313 302 371 513 21 78 21 96 22 649 l1 570 -1305 376 -1305 377 -3 317 -2 317 62 29 c86 38 273 96 388 119 183 37 282 45 520 45 238 0 337 -8 520 -45 115 -23 302 -81 388 -119 l62 -29 0 -244 0 -244 326 -97 c179 -54 332 -100 341 -103 13 -5 14 46 11 438 -4 417 -5 448 -25 506 -51 152 -136 238 -334 335 -288 142 -614 232 -968 268 -122 12 -539 11 -661 -1z"/>
</g>
</svg>