<svg width="512" height="512" xmlns="http://www.w3.org/2000/svg" preserveAspectRatio="xMidYMid meet">

 <g>
  <title>background</title>
  <rect fill="none" id="canvas_background" height="602" width="802" y="-1" x="-1"/>
 </g>
 <g>
  <title>Layer 1</title>
  <g id="svg_1" fill="#000000" transform="translate(0,512) scale(0.10000000149011612,-0.10000000149011612) ">
   <path stroke="#000" fill="#fff" id="svg_2" d="m2220,4869c-138,-15 -356,-56 -491,-93c-174,-48 -300,-96 -458,-174c-202,-99 -289,-189 -338,-347c-17,-56 -18,-107 -18,-704l0,-644l1305,-377l1305,-376l3,-284c3,-317 -2,-346 -61,-396c-17,-14 -228,-124 -469,-245l-438,-219l-433,216c-237,119 -447,227 -466,241c-63,48 -71,81 -71,325c0,198 -2,217 -17,222c-10,3 -155,46 -323,96c-168,50 -313,93 -324,96c-18,6 -18,-5 -13,-357c5,-406 11,-447 82,-596c63,-134 163,-255 280,-338c50,-36 1267,-675 1285,-675c12,0 1198,618 1251,652c176,113 313,302 371,513c21,78 21,96 22,649l1,570l-1305,376l-1305,377l-3,317l-2,317l62,29c86,38 273,96 388,119c183,37 282,45 520,45c238,0 337,-8 520,-45c115,-23 302,-81 388,-119l62,-29l0,-244l0,-244l326,-97c179,-54 332,-100 341,-103c13,-5 14,46 11,438c-4,417 -5,448 -25,506c-51,152 -136,238 -334,335c-288,142 -614,232 -968,268c-122,12 -539,11 -661,-1z"/>
  </g>
 </g>
</svg>